<svg width="21" height="21" viewBox="0 0 21 21" fill="none" xmlns="http://www.w3.org/2000/svg">
<path d="M15.377 3.59082C15.0643 3.59082 14.7644 3.71504 14.5433 3.93614C14.3222 4.15725 14.198 4.45713 14.198 4.76982C14.1979 4.92473 14.2283 5.07815 14.2875 5.22131C14.3467 5.36447 14.4335 5.49456 14.543 5.60415C14.6525 5.71373 14.7825 5.80066 14.9256 5.85998C15.0687 5.91929 15.2221 5.94982 15.377 5.94982C15.6897 5.94982 15.9896 5.82561 16.2107 5.6045C16.4318 5.38339 16.556 5.08351 16.556 4.77082C16.5561 4.61591 16.5257 4.46249 16.4665 4.31933C16.4074 4.17617 16.3205 4.04608 16.211 3.93649C16.1015 3.82691 15.9715 3.73997 15.8284 3.68066C15.6853 3.62135 15.5319 3.59082 15.377 3.59082Z" fill="white"/>
<path d="M10.136 5.10303C8.82319 5.10435 7.56455 5.62637 6.63618 6.55454C5.70782 7.48272 5.18555 8.74126 5.18396 10.054C5.18555 11.3669 5.70779 12.6255 6.63612 13.5539C7.56446 14.4822 8.8231 15.0044 10.136 15.006C11.4488 15.0044 12.7075 14.4822 13.6358 13.5539C14.5641 12.6255 15.0864 11.3669 15.088 10.054C15.0864 8.74126 14.5641 7.48272 13.6357 6.55454C12.7074 5.62637 11.4487 5.10435 10.136 5.10303ZM10.136 13.226C9.29477 13.2252 8.48826 12.8906 7.89354 12.2957C7.29882 11.7008 6.96449 10.8942 6.96396 10.053C6.96475 9.21201 7.2992 8.40566 7.8939 7.81096C8.48859 7.21627 9.29494 6.88182 10.136 6.88103C10.977 6.88182 11.7833 7.21627 12.378 7.81096C12.9727 8.40566 13.3072 9.21201 13.308 10.053C13.3074 10.8942 12.9731 11.7008 12.3784 12.2957C11.7837 12.8906 10.9772 13.2252 10.136 13.226Z" fill="white"/>
<path d="M14.068 20.108H6.03595C4.43487 20.1061 2.89991 19.4693 1.76778 18.3371C0.635646 17.205 -0.00119912 15.67 -0.00305176 14.069V6.04098C-0.00146377 4.43973 0.635266 2.90451 1.76743 1.77216C2.89959 0.639813 4.4347 0.00282968 6.03595 0.000976562H14.0639C15.665 0.0028292 17.2 0.639674 18.3321 1.7718C19.4643 2.90394 20.1011 4.4389 20.1029 6.03998V14.068C20.1014 15.6685 19.4652 17.2031 18.3339 18.3354C17.2026 19.4676 15.6685 20.1051 14.068 20.108ZM6.03595 1.89297C4.9365 1.8943 3.88246 2.33164 3.10504 3.10907C2.32761 3.88649 1.89027 4.94053 1.88895 6.03998V14.068C1.88868 15.1685 2.32532 16.224 3.10292 17.0028C3.88052 17.7815 4.93546 18.2197 6.03595 18.221H14.0639C15.1637 18.2199 16.2181 17.7827 16.9959 17.0053C17.7737 16.2279 18.2114 15.1737 18.2129 14.074V6.04597C18.2114 4.94626 17.7737 3.89208 16.9959 3.11465C16.2181 2.33722 15.1637 1.90003 14.0639 1.89898L6.03595 1.89297Z" fill="white"/>
</svg>
