<svg width="125" height="21" viewBox="0 0 125 21" fill="none" xmlns="http://www.w3.org/2000/svg">
<g id="Group 53511">
<path id="Path 22667" d="M124.028 3.18075C123.313 3.48789 122.561 3.70229 121.791 3.81875C122.152 3.75775 122.68 3.10675 122.891 2.84375C123.222 2.44366 123.475 1.98414 123.634 1.48975C123.653 1.45075 123.667 1.40275 123.628 1.37275C123.609 1.36453 123.588 1.36114 123.568 1.36289C123.547 1.36463 123.527 1.37146 123.51 1.38275C122.672 1.83006 121.781 2.17103 120.858 2.39775C120.826 2.40776 120.792 2.40847 120.759 2.39979C120.727 2.39112 120.698 2.37342 120.675 2.34875C120.604 2.26407 120.526 2.18484 120.443 2.11175C120.059 1.78228 119.625 1.51686 119.157 1.32575C118.533 1.07202 117.859 0.963287 117.187 1.00775C116.534 1.05173 115.897 1.2312 115.317 1.53475C114.736 1.83885 114.223 2.25802 113.809 2.76675C113.381 3.29368 113.074 3.90813 112.909 4.56675C112.77 5.191 112.754 5.83639 112.862 6.46675C112.876 6.57375 112.868 6.58775 112.77 6.57375C109.26 6.21589 106.011 4.56129 103.657 1.93375C103.55 1.81275 103.493 1.81275 103.406 1.94375C102.933 2.8177 102.754 3.82101 102.895 4.80477C103.037 5.78852 103.493 6.70029 104.194 7.40475C104.372 7.57375 104.556 7.74275 104.753 7.89675C104.141 7.85081 103.543 7.68357 102.996 7.40475C102.889 7.33675 102.835 7.37575 102.827 7.49675C102.819 7.67125 102.829 7.84607 102.855 8.01875C102.961 8.84114 103.284 9.62058 103.79 10.2771C104.296 10.9336 104.968 11.4436 105.737 11.7548C105.924 11.8367 106.12 11.8967 106.321 11.9338C105.753 12.0473 105.171 12.0652 104.597 11.9867C104.471 11.9627 104.422 12.0257 104.471 12.1467C104.766 12.9194 105.254 13.6037 105.887 14.1347C106.521 14.6658 107.281 15.0259 108.093 15.1807C108.257 15.2098 108.42 15.2098 108.585 15.2488C108.575 15.2628 108.566 15.2627 108.556 15.2778C107.852 15.9126 107.002 16.3631 106.082 16.5888C104.878 17.0184 103.596 17.1825 102.323 17.0697C102.123 17.0408 102.079 17.0417 102.023 17.0697C101.967 17.0977 102.016 17.1528 102.081 17.2048C102.338 17.3738 102.598 17.5238 102.863 17.6698C103.662 18.0946 104.505 18.4319 105.376 18.6758C107.618 19.35 109.998 19.4242 112.277 18.891C114.557 18.3577 116.657 17.2356 118.367 15.6368C121.03 12.9918 121.967 9.34375 121.967 5.69175C121.967 5.54875 122.136 5.46975 122.237 5.39175C122.912 4.86759 123.507 4.24812 124.004 3.55275C124.082 3.45225 124.124 3.32809 124.122 3.20075V3.18075C124.119 3.12475 124.118 3.14275 124.028 3.18075Z" fill="white"/>
<g id="Group 2556">
<g id="Group 2555">
<path id="Path 22668" d="M61.377 3.59082C61.0643 3.59082 60.7644 3.71504 60.5433 3.93614C60.3222 4.15725 60.198 4.45713 60.198 4.76982C60.1979 4.92473 60.2283 5.07815 60.2875 5.22131C60.3467 5.36447 60.4335 5.49456 60.543 5.60415C60.6525 5.71373 60.7825 5.80066 60.9256 5.85998C61.0687 5.91929 61.2221 5.94982 61.377 5.94982C61.6897 5.94982 61.9896 5.82561 62.2107 5.6045C62.4318 5.38339 62.556 5.08351 62.556 4.77082C62.5561 4.61591 62.5257 4.46249 62.4665 4.31933C62.4074 4.17617 62.3205 4.04608 62.211 3.93649C62.1015 3.82691 61.9715 3.73997 61.8284 3.68066C61.6853 3.62135 61.5319 3.59082 61.377 3.59082Z" fill="white"/>
<path id="Path 22669" d="M56.136 5.10303C54.8232 5.10435 53.5645 5.62637 52.6362 6.55454C51.7078 7.48272 51.1855 8.74126 51.184 10.054C51.1855 11.3669 51.7078 12.6255 52.6361 13.5539C53.5645 14.4822 54.8231 15.0044 56.136 15.006C57.4488 15.0044 58.7075 14.4822 59.6358 13.5539C60.5641 12.6255 61.0864 11.3669 61.088 10.054C61.0864 8.74126 60.5641 7.48272 59.6357 6.55454C58.7074 5.62637 57.4487 5.10435 56.136 5.10303ZM56.136 13.226C55.2948 13.2252 54.4883 12.8906 53.8935 12.2957C53.2988 11.7008 52.9645 10.8942 52.964 10.053C52.9648 9.21201 53.2992 8.40566 53.8939 7.81096C54.4886 7.21627 55.2949 6.88182 56.136 6.88103C56.977 6.88182 57.7833 7.21627 58.378 7.81096C58.9727 8.40566 59.3072 9.21201 59.308 10.053C59.3074 10.8942 58.9731 11.7008 58.3784 12.2957C57.7837 12.8906 56.9772 13.2252 56.136 13.226Z" fill="white"/>
<path id="Path 22670" d="M60.068 20.108H52.0359C50.4349 20.1061 48.8999 19.4693 47.7678 18.3371C46.6356 17.205 45.9988 15.67 45.9969 14.069V6.04098C45.9985 4.43973 46.6353 2.90451 47.7674 1.77216C48.8996 0.639813 50.4347 0.00282968 52.0359 0.000976562H60.0639C61.665 0.0028292 63.2 0.639674 64.3321 1.7718C65.4643 2.90394 66.1011 4.4389 66.1029 6.03998V14.068C66.1014 15.6685 65.4652 17.2031 64.3339 18.3354C63.2026 19.4676 61.6685 20.1051 60.068 20.108ZM52.0359 1.89297C50.9365 1.8943 49.8825 2.33164 49.105 3.10907C48.3276 3.88649 47.8903 4.94053 47.889 6.03998V14.068C47.8887 15.1685 48.3253 16.224 49.1029 17.0028C49.8805 17.7815 50.9355 18.2197 52.0359 18.221H60.0639C61.1637 18.2199 62.2181 17.7827 62.9959 17.0053C63.7737 16.2279 64.2114 15.1737 64.2129 14.074V6.04597C64.2114 4.94626 63.7737 3.89208 62.9959 3.11465C62.2181 2.33722 61.1637 1.90003 60.0639 1.89898L52.0359 1.89297Z" fill="white"/>
</g>
</g>
<path id="Path 22671" d="M10.2 11.464L10.765 7.776H7.227V5.382C7.20225 5.10655 7.23978 4.82905 7.33681 4.57006C7.43384 4.31108 7.58788 4.07724 7.78752 3.88585C7.98717 3.69446 8.2273 3.55043 8.49015 3.46443C8.75301 3.37842 9.03184 3.35265 9.306 3.389H10.915V0.248997C9.97033 0.0965865 9.01579 0.0133685 8.059 0C5.144 0 3.24 1.766 3.24 4.963V7.775H0V11.463H3.239V20.379C3.89863 20.4824 4.56531 20.5342 5.233 20.534C5.90068 20.5342 6.56737 20.4824 7.227 20.379V11.463L10.2 11.464Z" fill="white"/>
</g>
</svg>
